<?xml version="1.0" standalone="no"?>
<!DOCTYPE svg PUBLIC "-//W3C//DTD SVG 20010904//EN"
 "http://www.w3.org/TR/2001/REC-SVG-20010904/DTD/svg10.dtd">
<svg version="1.0" xmlns="http://www.w3.org/2000/svg"
 width="512.000000pt" height="512.000000pt" viewBox="0 0 512.000000 512.000000"
 preserveAspectRatio="xMidYMid meet">

<g transform="translate(0.000000,512.000000) scale(0.100000,-0.100000)"
fill="#000000" stroke="none">
<path d="M2320 4848 c-52 -5 -162 -22 -243 -38 -776 -156 -1475 -701 -1836
-1430 -228 -461 -295 -940 -195 -1390 37 -164 76 -275 150 -430 477 -992 1713
-1541 2936 -1304 802 155 1476 646 1792 1305 234 488 258 1007 71 1550 -54
156 -181 407 -283 559 -549 816 -1461 1266 -2392 1178z m356 -284 c20 -14 35
-15 87 -8 93 14 261 -12 482 -73 138 -38 264 -121 366 -240 77 -89 81 -68 6
31 -28 38 -59 78 -67 89 -20 27 195 -83 319 -163 337 -219 681 -635 815 -987
39 -104 91 -306 104 -405 l9 -67 -61 -14 -61 -14 -13 61 c-55 269 -220 516
-441 664 -71 47 -81 50 -81 24 0 -12 27 -37 71 -67 149 -102 291 -270 370
-441 41 -87 90 -256 88 -303 -1 -19 -2 -21 -5 -6 -28 136 -76 285 -93 285 -5
0 -50 -10 -159 -35 -21 -5 -21 -7 -8 -33 47 -93 98 -358 74 -389 -5 -6 -7 -35
-4 -65 4 -39 3 -45 -3 -23 -6 22 -9 25 -10 9 -2 -31 -45 -152 -76 -214 -43
-86 -82 -138 -168 -227 -53 -54 -78 -87 -75 -100 3 -15 15 -7 66 41 116 110
193 234 240 386 13 45 20 59 17 35 -22 -144 -107 -297 -240 -430 -135 -135
-261 -207 -441 -252 -107 -27 -324 -24 -434 5 -337 90 -590 346 -664 672 -11
46 -15 95 -11 138 3 45 2 59 -4 42 -6 -16 -9 -19 -10 -8 -1 9 -5 19 -9 22 -4
2 -51 -6 -104 -18 l-97 -23 -4 21 c-3 12 -2 -7 0 -40 5 -75 -23 -205 -66 -299
-94 -208 -280 -383 -496 -470 -223 -89 -482 -85 -712 12 -150 63 -312 198
-397 329 l-39 60 -86 -19 c-47 -11 -88 -22 -90 -23 -8 -7 33 -86 76 -147 225
-321 630 -503 1022 -459 376 42 683 247 867 579 16 29 31 53 34 53 3 0 18 -24
34 -53 119 -214 300 -385 509 -482 548 -253 1203 -29 1466 501 43 87 85 212
96 287 4 27 13 50 19 52 6 1 54 12 106 24 52 12 134 37 183 55 74 29 87 31 87
17 0 -13 -35 -29 -134 -65 l-134 -47 -7 -57 c-10 -85 -62 -283 -100 -381 -185
-487 -555 -880 -1060 -1127 -666 -325 -1464 -325 -2130 0 -505 247 -875 640
-1060 1127 -38 98 -90 296 -100 381 l-7 56 -134 49 c-100 36 -134 52 -134 65
0 15 7 14 60 -8 70 -28 208 -69 276 -82 l49 -8 1 155 c1 181 24 289 92 434 89
189 255 377 417 472 28 17 45 34 45 46 0 28 -15 24 -94 -28 -87 -58 -229 -197
-283 -278 -80 -119 -148 -283 -168 -402 -8 -48 -15 -51 -89 -32 l-42 10 8 67
c13 99 65 301 104 405 94 246 288 524 528 755 163 156 310 259 524 366 74 37
91 43 83 27 -6 -11 -16 -23 -21 -26 -19 -12 -102 -136 -95 -143 3 -4 13 2 21
13 38 52 146 152 214 196 91 60 234 105 451 143 107 19 147 21 225 11 50 -6
64 -4 75 8 20 24 199 24 235 1z m2001 -2016 c-2 -13 -4 -5 -4 17 -1 22 1 32 4
23 2 -10 2 -28 0 -40z"/>
<path d="M2949 3449 c-139 -90 -272 -233 -344 -371 -20 -37 -40 -68 -45 -68
-5 0 -25 31 -45 68 -70 133 -187 262 -329 361 -67 46 -76 49 -76 23 0 -11 23
-34 57 -58 80 -54 213 -184 274 -265 28 -38 68 -103 90 -144 33 -65 46 -78 40
-41 -3 13 57 116 110 187 64 87 197 214 282 268 43 28 67 50 67 62 0 27 -9 24
-81 -22z"/>
<path d="M1425 3136 c-309 -71 -510 -331 -492 -636 26 -443 490 -711 890 -513
103 52 221 171 270 273 67 142 82 301 41 440 -42 141 -135 269 -251 346 -126
83 -321 122 -458 90z m394 -253 c67 -51 84 -128 43 -194 -74 -120 -262 -71
-264 69 -1 62 39 120 102 145 26 11 92 -1 119 -20z m-204 -278 c35 -34 34 -93
0 -125 -56 -53 -145 -15 -145 62 0 79 90 119 145 63z"/>
<path d="M3454 3135 c-129 -28 -240 -91 -327 -184 -67 -73 -99 -127 -134 -227
-23 -69 -27 -94 -27 -194 0 -98 4 -126 26 -188 38 -105 83 -174 164 -252 298
-283 782 -199 968 168 86 170 86 376 0 552 -51 103 -169 221 -274 272 -127 62
-268 81 -396 53z m369 -239 c43 -18 85 -68 93 -113 5 -26 1 -47 -15 -79 -47
-99 -163 -113 -240 -30 -34 37 -41 113 -13 158 42 66 110 92 175 64z m-185
-282 c77 -53 22 -179 -69 -159 -65 15 -92 103 -44 150 28 29 79 33 113 9z"/>
<path d="M642 2445 c0 -16 2 -22 5 -12 2 9 2 23 0 30 -3 6 -5 -1 -5 -18z"/>
<path d="M2427 2381 c-23 -132 -121 -305 -244 -433 -47 -48 -74 -83 -71 -94 2
-13 15 -6 60 35 72 66 140 156 184 244 39 77 87 235 82 269 -2 16 -6 10 -11
-21z"/>
<path d="M2681 2399 c-1 -41 46 -193 80 -262 47 -93 110 -177 185 -246 37 -33
71 -61 75 -61 26 0 0 40 -64 100 -124 116 -216 268 -257 424 -11 39 -19 59
-19 45z"/>
<path d="M655 2367 c7 -70 50 -192 98 -277 54 -97 240 -288 245 -253 2 16 -16
40 -74 95 -125 119 -211 259 -256 416 -17 63 -18 64 -13 19z"/>
<path d="M2469 1047 c-50 -33 -83 -105 -74 -163 8 -54 62 -119 109 -130 18 -4
27 -3 23 3 -9 14 21 53 42 53 22 0 41 -19 41 -42 0 -17 2 -17 28 -4 115 60
117 232 2 291 -45 23 -130 19 -171 -8z"/>
</g>
</svg>
